<svg xmlns="http://www.w3.org/2000/svg" width="384.725" height="136.913" viewBox="0 0 384.725 136.913">
  <g id="Group_3" data-name="Group 3" transform="translate(-1170.774 -878.658)">
    <g id="Group_2" data-name="Group 2" transform="translate(0 0)">
      <g id="Group_1" data-name="Group 1" transform="translate(1296.633 913.947)">
        <path id="Get_a_valuation_in_30_seconds_" data-name="Get a valuation in 
30 seconds!" d="M24.725,38.07q-3.234,0-3.234-6.068,0-1.98.69-5.922-2.693,4.783-5.018,6.746Q13.98,35.581,9.254,35.59,5.972,35.6,4.106,32.11q-1.5-2.8-1.5-6.205,0-6.341,3.9-12.878Q10.95,5.555,16.97,5.515q.882-.006,1.937.515,1.271.608,1.271,1.444,0,.462-.312.838t-.7.378q-.194,0-.344-.086-1.356-.827-2.69-.819-2.279.014-4.837,2.6Q8.288,13.412,6.4,17.7q-1.93,4.42-1.93,8.568,0,2.678,1.179,4.979,1.394,2.7,3.561,2.692,4.747-.01,9.394-6.025,4.2-5.471,4.632-10.228.129-1.563-.5-1.56-.8,0-8.1,4.546-1.483.929-1.806.931-1.01,0-1.01-1.072,0-1.165,5.053-3.694,4.8-2.4,6.138-2.407,2.178-.011,2.178,2.653,0,.815-.237,2.049-.108.595-.3,1.587-1.1,8.017-1.1,12.111,0,3.742,1.251,3.586,1.1-.156,1.1.725Q25.912,38.068,24.725,38.07Zm4.792-12.3q-.389.354-.832,2.14t-.443,3.107q0,1.718,2.225,1.713,2.14-.005,5.017-2.548,2.793-2.479,3.876-5.108l.693,0q.412.4.282.749-1.257,3.711-4.2,6.168-2.791,2.366-5.6,2.372-2.074,0-3.132-1.447-1.036-1.385-.907-3.742.173-3.3,3.455-8.207,3.524-5.262,6.423-5.276.974,0,1.494.919.39.682.39,1.432,0,2.162-1.8,4.971-2.121,3.382-4.867,3.391-1.3,0-1.988-.566Zm6.6-8.536q-.822.2-1.493,1.021-4.5,5.4-4.5,6.279,0,.242.994.3,1.686.082,3.676-2.483,1.948-2.5,1.948-4.463Q36.741,17.053,36.113,17.232Zm10.668,2.4q.977-.247,2.346-.253.63,0,1.5.458,1.109.614,1.109,1.454,0,.155-.065.288l-.022.066q0-.044-.087.177-.239.089-.174.111h-.043q-.13.067-.3.068-.13,0-.348-.242-.435-1.059-1.435-1.055-.348,0-.782.136-.912.247-1.868.847,0,.11-.022.354-.282,2.232-.152,5.391.217,5.854,2.585,5.848.674,0,1.239-.71t.783-.709q.7,0,.7.662,0,.8-1.283,1.506-1.065.577-1.587.578-1.977,0-3.15-2.18-.825-1.566-1.02-3.465-.347-3.356-.043-6.647-1.215.446-2.929,1.733-.217.177-.412.178-.585,0-.585-1.234,0-.772,3.579-2.509.217-.045.434-.112.152-1.5.478-4.486t1.455-2.99q.934-.005,1,1.232ZM77.447,32.307q-2.09-.749-2.09-4.921,0-.444,0-.91Q73.2,29.411,70.6,31.836q-3.333,3.111-5.249,3.115-.631,0-1.088-.352-.783-.6-.783-1.947,0-2.769,2.927-7.474,2.842-4.51,6.211-7.43,3.68-3.191,5.456-2.023.833.529.833,2.238,0,2.043-1.382,2.182-.965.071-.965-.684,0-.111.044-.2.416-1.045.395-1.866,0-.488-.11-.466-2.169.41-7.018,6.807t-4.841,8.8q0,.842.743.84,1.9,0,5.969-5,2.825-3.47,3.087-3.848,1.249-1.758,1.424-3.223.11-1,1.052-1,1.338-.006,1.074,1.305-1.074,5.709-1.074,6.952,0,2.264.987,2.528.351.088.746-.135.329-.2.373-.4.219-.955,1.1-.958.527,0,.527.576,0,.244-.132.6Q80.222,32.5,78.438,32.5,77.953,32.505,77.447,32.307ZM107,17.943h-.044q-1.327-.083-4,5.634-1.635,3.883-3.269,7.763-1.192,2.787-1.766,2.788-.728,0-1.544-2.49-.485-1.6-1.786-5.292-.639-1.6-2.049-4.287-.727-1.376-1.453-2.752-.088-.2-.088-.4,0-.445.462-.758.374-.246.727-.248.859,0,2.864,4.817.11.244,2.492,6.514.684,1.8.6,1.8,0,0,.772-2.006,2.274-5.866,3.069-7.428,2.541-4.981,4.974-4.993.974,0,.974.816,0,.388-.553.52Q107.2,17.986,107,17.943Zm12.622,14.263q-2.118-.754-2.118-4.953,0-.447,0-.916-2.189,2.954-4.818,5.394-3.377,3.131-5.317,3.135-.639,0-1.1-.355-.793-.6-.793-1.96,0-2.787,2.965-7.523,2.879-4.54,6.292-7.478,3.728-3.212,5.527-2.037.844.532.844,2.253,0,2.056-1.4,2.2-.977.071-.977-.688,0-.112.044-.2.422-1.052.4-1.878,0-.491-.111-.469-2.2.412-7.11,6.851t-4.9,8.859q0,.847.752.846,1.926,0,6.047-5.036,2.861-3.492,3.128-3.873,1.265-1.769,1.443-3.244.111-1.006,1.066-1.01,1.355-.006,1.088,1.314-1.088,5.746-1.088,7,0,2.279,1,2.544.355.088.755-.136.333-.2.378-.4.222-.962,1.111-.964.534,0,.534.58,0,.246-.134.6-.692,1.745-2.5,1.749Q120.131,32.405,119.618,32.205Zm3.169-5.506q-.022-.939-.022-2.079,0-5.834.667-11.805.756-6.622,1.69-6.628,1.157-.007,1.157,1.267-.022.2-.134.784l-.267,1.589q-.423,2.373-.579,3.648-.623,5.325-.623,12.077,0,8.161,2.849,8.155.512,0,.779-.4h.512l.4.4.022.065q.045.173.045.412-.757.934-1.915.936-1.714,0-2.96-1.962Q122.965,30.878,122.787,26.7Zm16.829-2.52q-2.39,5.027-3.1,6.149-2.388,3.7-5.042,3.707-2.095,0-2.095-4.2,0-1.208,1.27-6.516,1.471-6.049,2.475-6.1.491,0,.948.3t.457.681q-.022.179-.156.56l-.4,1.032q-2.832,7.666-2.832,10.755,0,1.88.646,1.878.8,0,2.5-2.088,1.83-2.267,3.616-5.79,2.011-3.951,2.033-6.013.022-.717.436-1.324t.995-.61q1.118-.005,1.118,1.116,0,.179-.391,2.2t-.391,3.835q0,7.039,2.17,7.033.515,0,1.119-.608.269-.27.784-.608.493.425.493.694,0,.808-1.1,1.438-.9.518-1.455.519a2.677,2.677,0,0,1-1.563-.474,3.94,3.94,0,0,1-1.2-1.43,9.684,9.684,0,0,1-.835-2.386,23.017,23.017,0,0,1-.472-3.342Zm19.329,7.931q-2.143-.759-2.143-4.983,0-.449,0-.921-2.215,2.972-4.876,5.427-3.418,3.15-5.382,3.154-.647,0-1.115-.357-.8-.6-.8-1.972,0-2.8,3-7.568,2.914-4.567,6.368-7.524,3.773-3.231,5.594-2.049.854.535.854,2.266,0,2.068-1.417,2.209-.989.072-.989-.692,0-.112.045-.2.427-1.058.4-1.89,0-.494-.112-.471-2.224.415-7.2,6.893t-4.964,8.913q0,.852.761.851,1.949,0,6.12-5.066,2.9-3.513,3.165-3.9,1.281-1.78,1.46-3.264.112-1.012,1.079-1.016,1.371-.006,1.1,1.322-1.1,5.781-1.1,7.039,0,2.292,1.012,2.56.36.089.765-.137.337-.2.382-.406.225-.967,1.125-.97.54,0,.54.583,0,.247-.135.608-.7,1.756-2.529,1.76Q159.464,32.311,158.945,32.11ZM168.166,19.1q1.015-.252,2.436-.258.654,0,1.557.466,1.151.626,1.151,1.482,0,.158-.068.293l-.023.068q0-.045-.09.181-.248.091-.181.113H172.9q-.135.068-.316.069-.135,0-.361-.246-.451-1.079-1.489-1.075-.361,0-.812.139-.947.252-1.939.863,0,.113-.023.36-.293,2.274-.158,5.492.225,5.964,2.683,5.958.7,0,1.286-.724t.813-.723q.722,0,.722.674,0,.811-1.332,1.535-1.106.588-1.647.589-2.052,0-3.269-2.221-.856-1.6-1.059-3.53-.36-3.419-.045-6.772-1.261.455-3.04,1.766-.225.181-.428.181-.608,0-.608-1.257,0-.787,3.715-2.557.225-.046.451-.114.158-1.531.5-4.57t1.51-3.046q.969-.005,1.037,1.255Zm8.736-6.867q-.5,0-.847-.424T175.7,11q0-.451.35-.9t.893-.456q1.176-.007,1.176,1.278Q178.122,12.228,176.9,12.234ZM178.258,34.5q-2.147,0-3.277-3.328-.791-2.3-.791-4.481,0-2,.5-4.936.745-4.239,2.033-4.245,1.017,0,1.017,1.167,0,.541-.633,2.031-.655,1.625-.949,5.525.045,1.848,0,2.208.294,1.4.588,2.793.588,1.847,1.741,1.844.271,0,.362-.091.317-.429.882-.7.475.4.475.766,0,.609-.792,1.061Q178.778,34.5,178.258,34.5Zm6.881-.488q-1.971.162-3.148-1.324-1.086-1.351-1.086-3.4,0-3.473,1.664-7.527t3.115-4.063q1.315-.006,1.315,1.1,0,.316-.748,1.312-3.579,4.707-3.579,8.79,0,3.519,1.767,3.515,2.674-.006,5.237-4.867,2.247-4.208,2.247-6.761,0-3.682-1.839-3.673-1.407.007-2.994,1.5l-.34-.2q-.317-.179-.317-.54,0-.767,1.633-1.565,1.361-.661,2.019-.665,3.678-.018,3.815,5.63.068,2.734-2.43,7.215Q188.562,33.71,185.139,34.011Zm12.19-7.622.387-.68q4.894-8.252,6.945-8.261,1.938-.009,2.577,2.818.205,2.15.411,4.3.365,3.531.456,4.006.525,3.169,1.529,3.166.434,0,1.187-.8l.845.27q.046.883-.777,1.452-.617.432-1.142.433-3.286.007-4.061-7.348-.137-1.742-.479-4.774-.251-1.855-.638-1.853-.775,0-3.816,4.778t-4.289,8.8q-.318,1.086-1.114,1.087-1.023,0-.932-1.015.023-.362,1.455-9.587.068-1.153.227-3.188.182-1.854,1.364-1.86.682,0,.933.493.136.519.273,1.016Zm29.745-14.426q-.5,0-.86-.427t-.356-.815q0-.454.356-.91t.906-.459q1.194-.007,1.194,1.288Q228.314,11.956,227.074,11.962ZM228.452,34.4q-2.18,0-3.327-3.353-.8-2.313-.8-4.515,0-2.02.5-4.973.757-4.271,2.065-4.277,1.033,0,1.033,1.176,0,.545-.643,2.047-.665,1.638-.964,5.567.046,1.862,0,2.225.3,1.407.6,2.814.6,1.861,1.767,1.858.276,0,.367-.092.322-.432.9-.706.482.408.482.771,0,.613-.8,1.07Q228.98,34.395,228.452,34.4Zm4.894-8.125.391-.683q4.947-8.3,7.021-8.307,1.959-.009,2.6,2.834.208,2.162.415,4.324.369,3.55.461,4.028.531,3.186,1.546,3.184.438,0,1.2-.8l.854.271q.046.888-.785,1.46-.623.434-1.154.435-3.322.007-4.106-7.388-.138-1.752-.484-4.8-.253-1.865-.645-1.863-.783,0-3.857,4.8t-4.336,8.845q-.322,1.092-1.126,1.093-1.034,0-.942-1.02.023-.364,1.471-9.639.069-1.159.23-3.205.184-1.864,1.379-1.87.69,0,.943.5.138.522.276,1.022ZM20.436,68.814q-1.378.941-5.123,2.885,6.415.486,6.415,5.305,0,3.367-4.049,6.227-3.7,2.639-7.052,2.619Q3.056,85.806.85,79.959.7,79.695.7,79.453q0-.526.407-.656.428-.151.728.376a6.551,6.551,0,0,0,.515,1.042,6.441,6.441,0,0,0,.69.928,6.963,6.963,0,0,0,.864.814,8.168,8.168,0,0,0,1.038.7q2.1,1.2,4.591,1.211,3.372.019,6.791-1.9,3.853-2.158,3.853-5.128,0-3.454-7.079-3.482-.516,0-3.8.512-.644.107-.944.106-.837,0-.837-.662,0-1.01,1.438-1.444.923-.194,2.77-.715Q15.378,69.9,18.606,67.8q4.309-2.826,4.309-5.291,0-1.607-1.616-2.446-1.422-.729-3.316-.6-3.937.257-7.331,1.788-2.233.984-3.37,2.035-.343.329-.858.327-1.136,0-1.136-.969,0-1.427,4.162-3.109,4.3-1.729,8.4-1.722,6.938.011,6.938,4.876Q24.79,65.9,20.436,68.814ZM30.447,85.109q-3.24-.019-5.505-4.171-1.811-3.289-1.9-6.019-.129-5.349,1.229-9.659,1.985-6.2,6.693-7.761.259-.088.756.133.584.265.584.728,0,.97-1.6,1.408-2.894.744-4.837,6.333-1.079,3.123-1.079,7.042,0,2.972,1.185,6.06,1.724,4.414,5,4.432,3.433.019,5.788-5.041,1.816-3.83,2.119-7.779.065-.6.065-1.257,0-3.773-1.17-6.622-1.451-3.51-4.069-3.515-1.276,0-1.968,2.421-.281.286-.562.285-.3,0-.5-.354t-.108-.727q.281-1.454,1.556-2.333,1.06-.726,2.163-.724,3.052,0,4.958,4.2,1.56,3.447,1.56,7.088,0,5.209-2.449,9.986Q35.355,85.137,30.447,85.109ZM64.311,67.827q-.131,0-.862-.4T62.346,67q-1.484-.137-4.144,2.179-2.745,2.38-2.745,4.083,0,.907,3.181.92,6.153.025,6.153,3.5,0,2.459-2.723,4.394-2.482,1.758-4.939,1.744-1.087-.006-2.022-.7-1.086-.78-1.086-2.019,0-.509.43-1.192.495-.794,1.054-.791.15,0,.3.068-.078.774-.252,1.193-.1.243-.1.508,0,1,1.173,1,1.8.009,4.13-1.174,2.59-1.316,2.59-2.778,0-.908-.9-1.51-.743-.49-1.64-.539l-4.194-.173q-1.048-.049-2.03-.451-1.33-.536-1.33-1.421,0-2.189,3.386-5.529t5.723-3.337q.655,0,1.593.514,1.114.623,1.114,1.377Q65.075,67.829,64.311,67.827Zm4.02,7.327q-.394.353-.842,2.146t-.448,3.123q0,1.729,2.252,1.74,2.166.011,5.078-2.525,2.827-2.472,3.923-5.109l.7,0q.417.4.285.756-1.272,3.724-4.253,6.173Q72.2,83.82,69.359,83.8q-2.1-.012-3.17-1.48-1.049-1.4-.918-3.771.175-3.323,3.5-8.23,3.566-5.266,6.5-5.259.986,0,1.512.936.395.689.395,1.444,0,2.175-1.819,4.987-2.147,3.386-4.926,3.374-1.312-.006-2.012-.585Zm6.675-8.537q-.832.2-1.511,1.016-4.552,5.4-4.552,6.282,0,.244,1.006.314,1.707.1,3.721-2.469,1.972-2.5,1.972-4.475Q75.642,66.441,75.006,66.617Zm16.671,2.028q-.506,0-1.255-.8t-1.5-.805q-2.705-.008-5.518,5.027-2.481,4.455-2.481,6.964,0,2.8,2.327,2.81,2.307.012,4.572-1.51,2.09-1.413,3.587-3.741.132-.244.352-.243.264,0,.507.358t.176.579q-.176.711-2.466,2.969-2.09,2.057-2.552,2.3-2.177,1.188-2.726,1.185-.066,0-.571.052t-.549.053q-2.284-.013-3.447-1.685-.965-1.382-.965-3.446,0-3.264,2.9-7.938,3.339-5.389,7.078-5.4.638,0,1.871.561,1.608.716,1.674,1.74.044.445-.341.711T91.677,68.645Zm6.79,15.3q-1.919.145-3.066-1.33-1.058-1.341-1.058-3.366,0-3.427,1.62-7.416T99,67.844q1.28,0,1.28,1.1,0,.312-.729,1.289-3.486,4.618-3.486,8.647,0,3.473,1.72,3.482,2.6.014,5.1-4.764,2.188-4.136,2.188-6.655,0-3.633-1.791-3.639-1.37,0-2.916,1.461l-.331-.2q-.309-.179-.309-.536,0-.757,1.59-1.532,1.325-.642,1.966-.641,3.582.01,3.715,5.585.066,2.7-2.367,7.1Q101.8,83.672,98.467,83.943Zm11.872-7.43.377-.668q4.766-8.107,6.763-8.1,1.887.006,2.509,2.8.2,2.123.4,4.247.355,3.487.444,3.957.511,3.131,1.489,3.136.422,0,1.156-.776l.823.272q.045.872-.756,1.427-.6.421-1.112.419-3.2-.017-3.955-7.281-.133-1.72-.466-4.715-.244-1.832-.622-1.834-.755,0-3.716,4.686T109.5,82.732q-.31,1.069-1.085,1.065-1-.005-.907-1.008.022-.357,1.417-9.45.066-1.137.221-3.144.177-1.828,1.329-1.825.665,0,.908.494.133.514.266,1Zm27.021-1.539L136.537,76q-7.136,9.076-10.377,9.057l-.444,0q-2.217-.013-2.217-2.293,0-1.878,1.98-5.759,2.092-4.174,4.765-7.05,3.188-3.415,5.866-3.407,1.027,0,2.1.768.447-2.463,1.318-7.122.827-4.5,1.855-4.5.4,0,.816.36t.414.83q0,.112-.559,1.972-2.839,9.72-2.839,18.661,0,5.154,1.542,5.162.089-.044.335-.189t.962-.477q.38.383.38.764,0,.516-.693.938-.6.378-1.14.375-3.24-.018-3.24-7.5Q137.36,75.914,137.36,74.973Zm-1-6.88q-2.5-.455-7.025,5.975-4.274,6.087-4.274,8.636,0,.626.489.629,1.936.01,6.571-4.643,4.172-4.214,4.976-6.025.491-1.1.491-2.485,0-.694-.368-1.334T136.355,68.093Zm17.707.01q-.135,0-.887-.407t-1.133-.43q-1.525-.139-4.259,2.209-2.822,2.413-2.822,4.14,0,.92,3.27.933,6.325.026,6.325,3.552,0,2.493-2.8,4.455-2.551,1.782-5.077,1.768-1.117-.006-2.078-.707-1.117-.791-1.117-2.047,0-.516.442-1.209.508-.8,1.083-.8.155,0,.31.069-.08.785-.259,1.21-.1.246-.1.515,0,1.009,1.205,1.016,1.854.01,4.246-1.19,2.662-1.334,2.662-2.816,0-.921-.922-1.531-.764-.5-1.686-.546l-4.312-.176q-1.077-.049-2.086-.457-1.368-.544-1.368-1.441,0-2.22,3.48-5.605t5.883-3.383q.673,0,1.638.521,1.145.632,1.145,1.4Q154.848,68.1,154.062,68.1ZM162.2,80.046q-.27.2-.945-.095-1.349-.569-2.339-2.641-.809-1.689-.921-3.173-.067-.607-.067-1.506,0-4.382.854-9.346.967-5.685,2.181-5.683.4,0,.776.372t.371.776q0,.135-.045.247-2.024,5.527-2.024,13.709,0,4.945,1.957,6.371Q162.648,79.71,162.2,80.046Zm-1.462,5.119q-1.394-.008-1.394-1.042,0-1.259,1.439-1.251,1.507.008,1.507,1.177,0,.382-.585.75T160.735,85.164Z" transform="translate(-1.898 -0.357)"/>
      </g>
      <g id="arrow-33" transform="translate(1170.774 903.211) rotate(-25)">
        <path id="Path_3" data-name="Path 3" d="M8.509.011A1.211,1.211,0,0,1,9.883,1.153a6.987,6.987,0,0,1-.334,1.437c-.365.924-.776,1.825-1.211,2.718C5.372,11.418,4.021,17.98,3.12,24.626A40.557,40.557,0,0,0,4.052,39.38c.6,2.531,1.312,5.047,2.143,7.517a44.475,44.475,0,0,0,6.461,11.648A65.674,65.674,0,0,0,24.9,70.968,97.062,97.062,0,0,0,40.524,81.063a123.255,123.255,0,0,0,14.886,6.8,19.912,19.912,0,0,1,2.33,1.118,1.126,1.126,0,0,1,.225,1.351,1.8,1.8,0,0,1-.831.637,2.072,2.072,0,0,1-1.087,0,16.6,16.6,0,0,1-2.12-.7,144.6,144.6,0,0,1-17.805-8.441c-2.671-1.553-5.35-3.153-7.92-4.892a79.825,79.825,0,0,1-6.523-4.946A66.663,66.663,0,0,1,9.914,59.569,51.808,51.808,0,0,1,1.373,39.924,91.714,91.714,0,0,1,.061,29.969,33.768,33.768,0,0,1,.736,22.2a64.645,64.645,0,0,1,6.1-20.189A9.107,9.107,0,0,1,7.771.461a1.989,1.989,0,0,1,.738-.45Z" transform="translate(0)"/>
        <path id="Path_4" data-name="Path 4" d="M30.4,36.286c-1.732-.148-3.456-.3-5.187-.443-1.607-.132-3.215-.233-4.822-.365-6.484-.536-12.774-1.8-18.527-5.024A14.642,14.642,0,0,1,.311,29.43a1.235,1.235,0,0,1,1.025-2.05,4.41,4.41,0,0,1,1.39.482c5.529,3.106,11.57,4.379,17.805,4.9,5.436.45,10.871.94,16.345.225a6.081,6.081,0,0,0,1.429-.357.668.668,0,0,0,.3-.582,12.915,12.915,0,0,0-.924-1.553c-5.04-7.664-10.444-15.1-14.754-23.249A16.011,16.011,0,0,1,21,2.042,4.009,4.009,0,0,1,21,.947,1.079,1.079,0,0,1,22,0a1.476,1.476,0,0,1,.978.357,1.856,1.856,0,0,1,.575.924c.87,3.564,2.85,6.593,4.659,9.683,2.516,4.279,5.241,8.417,8.107,12.486,1.856,2.632,3.518,5.436,5.436,7.983a12.3,12.3,0,0,1,1.087,1.933,1.242,1.242,0,0,1-.691,1.553,4.029,4.029,0,0,1-1.048.365C37.568,35.549,34.058,36.286,30.4,36.286Z" transform="translate(25.537 61.619)"/>
      </g>
    </g>
  </g>
</svg>
