<svg xmlns="http://www.w3.org/2000/svg" width="323.443" height="152.817" viewBox="0 0 323.443 152.817">
  <g id="Group_2" data-name="Group 2" transform="translate(-742 -517.895)">
    <g id="trustpilot-1" transform="translate(721.5 269.395)">
      <path id="Path_1" data-name="Path 1" d="M178.154,300.7h32.722v6.091H197.992V341.13H190.93V306.792H178.1Zm31.32,11.159h6.038v5.66h.108a7.111,7.111,0,0,1,1.132-2.318,8.96,8.96,0,0,1,1.995-2.048,8.823,8.823,0,0,1,2.588-1.509,7.532,7.532,0,0,1,2.857-.593c.755,0,1.294.054,1.563.054a4.719,4.719,0,0,0,.863.108v6.2a10.906,10.906,0,0,0-1.4-.216,12.254,12.254,0,0,0-1.4-.108,7.482,7.482,0,0,0-3.073.647,7.79,7.79,0,0,0-2.534,1.887,10.223,10.223,0,0,0-1.725,3.127,13.192,13.192,0,0,0-.647,4.313v13.908h-6.469Zm46.791,29.272H249.9v-4.1H249.8a9.032,9.032,0,0,1-3.558,3.558,9.391,9.391,0,0,1-4.8,1.348c-3.827,0-6.631-.916-8.356-2.857-1.725-1.887-2.588-4.8-2.588-8.625v-18.6h6.469V329.81c0,2.588.485,4.42,1.509,5.445a5.322,5.322,0,0,0,4.151,1.617,7.951,7.951,0,0,0,3.4-.647,5.858,5.858,0,0,0,2.21-1.671,6.557,6.557,0,0,0,1.24-2.534,11.969,11.969,0,0,0,.377-3.181V311.859h6.469V341.13Zm11-9.38a5.088,5.088,0,0,0,2.156,3.989,8.489,8.489,0,0,0,4.474,1.132,14.814,14.814,0,0,0,2.048-.162,9.025,9.025,0,0,0,2.156-.539,3.793,3.793,0,0,0,1.671-1.186,2.76,2.76,0,0,0,.593-1.995,2.9,2.9,0,0,0-.916-2.048,7.637,7.637,0,0,0-2.156-1.294,18.7,18.7,0,0,0-3.019-.809c-1.132-.216-2.264-.485-3.45-.755s-2.372-.593-3.5-.97a10.042,10.042,0,0,1-3.019-1.563,6.723,6.723,0,0,1-2.1-2.48,7.749,7.749,0,0,1-.809-3.72,6.375,6.375,0,0,1,1.186-3.989,8.6,8.6,0,0,1,2.965-2.588,13.457,13.457,0,0,1,3.989-1.4,22.839,22.839,0,0,1,4.151-.377,18.547,18.547,0,0,1,4.313.485,10.9,10.9,0,0,1,3.72,1.563,8.54,8.54,0,0,1,2.749,2.8,9.71,9.71,0,0,1,1.4,4.151h-6.738a4.149,4.149,0,0,0-2.1-3.127,8.682,8.682,0,0,0-3.827-.809c-.431,0-1.024.054-1.617.108a9.53,9.53,0,0,0-1.779.431,4.216,4.216,0,0,0-1.4.916,2.157,2.157,0,0,0-.593,1.563,2.37,2.37,0,0,0,.809,1.887,7.328,7.328,0,0,0,2.156,1.24,18.7,18.7,0,0,0,3.019.809c1.132.216,2.318.485,3.5.755s2.318.593,3.45.97a9.443,9.443,0,0,1,3.019,1.563,7.776,7.776,0,0,1,2.156,2.426,7.451,7.451,0,0,1,.809,3.612,7.857,7.857,0,0,1-1.186,4.42,10.08,10.08,0,0,1-3.073,2.965,15.237,15.237,0,0,1-4.2,1.671,22.583,22.583,0,0,1-4.582.539,19.307,19.307,0,0,1-5.121-.647,13.042,13.042,0,0,1-4.1-1.887,9.049,9.049,0,0,1-2.7-3.18,10.385,10.385,0,0,1-1.078-4.528h6.523v.054Zm21.293-19.892h4.906v-8.841h6.469V311.8h5.822v4.8H299.93v15.633a16.591,16.591,0,0,0,.108,1.779,3.736,3.736,0,0,0,.377,1.24,2.106,2.106,0,0,0,.916.755,4.808,4.808,0,0,0,1.725.27,11.27,11.27,0,0,0,1.348-.054,11.683,11.683,0,0,0,1.348-.216v5.013c-.7.108-1.4.162-2.1.216a13.4,13.4,0,0,1-2.1.108,13.934,13.934,0,0,1-4.1-.485,5.887,5.887,0,0,1-2.426-1.4,5.011,5.011,0,0,1-1.186-2.318,18.4,18.4,0,0,1-.377-3.234v-17.25h-4.906v-4.8Zm21.725,0h6.091v3.989h.108a8.007,8.007,0,0,1,3.773-3.666,12.222,12.222,0,0,1,5.283-1.132,13.283,13.283,0,0,1,6.038,1.24,11.328,11.328,0,0,1,4.259,3.342,13.94,13.94,0,0,1,2.534,4.959,21.777,21.777,0,0,1,.108,11.752,15.86,15.86,0,0,1-2.318,4.906,11.468,11.468,0,0,1-3.935,3.4,11.635,11.635,0,0,1-5.606,1.294,16.449,16.449,0,0,1-2.8-.27,11.926,11.926,0,0,1-2.7-.809,9.669,9.669,0,0,1-2.372-1.456,8.214,8.214,0,0,1-1.833-2.048H316.8v14.609h-6.469V311.859Zm22.587,14.663a13.135,13.135,0,0,0-.539-3.827,9.762,9.762,0,0,0-1.563-3.288,8.623,8.623,0,0,0-2.534-2.318,6.9,6.9,0,0,0-3.5-.863,7.16,7.16,0,0,0-6.145,2.8,12.768,12.768,0,0,0-2.048,7.547,13.963,13.963,0,0,0,.539,4.1,9.126,9.126,0,0,0,1.617,3.234,7.7,7.7,0,0,0,2.588,2.156,7.309,7.309,0,0,0,3.5.809,7.172,7.172,0,0,0,3.72-.916,8.687,8.687,0,0,0,2.534-2.318,9.486,9.486,0,0,0,1.4-3.288A18.512,18.512,0,0,0,332.868,326.522ZM344.242,300.7h6.469v6.092h-6.469Zm0,11.159h6.469V341.13h-6.469ZM356.479,300.7h6.469v40.43h-6.469Zm26.2,41.239a15.4,15.4,0,0,1-6.253-1.186,14.194,14.194,0,0,1-4.636-3.181,13.848,13.848,0,0,1-2.857-4.906,19.165,19.165,0,0,1-1.024-6.2,17.509,17.509,0,0,1,1.024-6.145,14.338,14.338,0,0,1,2.857-4.906,12.93,12.93,0,0,1,4.636-3.181,16.363,16.363,0,0,1,6.253-1.186,15.4,15.4,0,0,1,6.253,1.186,13.417,13.417,0,0,1,4.636,3.181,13.847,13.847,0,0,1,2.857,4.906,18.834,18.834,0,0,1,1.024,6.145,17.6,17.6,0,0,1-1.024,6.2,15.258,15.258,0,0,1-2.857,4.906,12.93,12.93,0,0,1-4.636,3.181A16.163,16.163,0,0,1,382.678,341.939Zm0-5.121a7.456,7.456,0,0,0,3.72-.916,7.8,7.8,0,0,0,2.588-2.372,10.161,10.161,0,0,0,1.509-3.288,14.708,14.708,0,0,0,0-7.493,9.665,9.665,0,0,0-1.509-3.288,8.188,8.188,0,0,0-2.588-2.318,7.6,7.6,0,0,0-3.72-.916,7.456,7.456,0,0,0-3.72.916,8.255,8.255,0,0,0-2.588,2.318,9.664,9.664,0,0,0-1.509,3.288,14.706,14.706,0,0,0,0,7.493,9.665,9.665,0,0,0,1.509,3.288,8.36,8.36,0,0,0,2.588,2.372A7.059,7.059,0,0,0,382.678,336.818Zm16.711-24.959h4.906v-8.841h6.469V311.8h5.822v4.8h-5.822v15.633a16.575,16.575,0,0,0,.108,1.779,3.737,3.737,0,0,0,.377,1.24,2.105,2.105,0,0,0,.916.755,4.808,4.808,0,0,0,1.725.27,11.263,11.263,0,0,0,1.348-.054,11.671,11.671,0,0,0,1.348-.216v5.013c-.7.108-1.4.162-2.1.216a13.389,13.389,0,0,1-2.1.108,13.934,13.934,0,0,1-4.1-.485,5.887,5.887,0,0,1-2.426-1.4,5.011,5.011,0,0,1-1.186-2.318,18.4,18.4,0,0,1-.377-3.234v-17.25h-4.906v-4.8Z" transform="translate(-72.642 -24.06)"/>
      <path id="Path_2" data-name="Path 2" d="M97.965,276.64H68.37l-9.11-28.14L50.1,276.64l-29.6-.054L44.435,294l-9.164,28.14,23.935-17.412L83.14,322.137,74.03,294Z" transform="translate(0 0)" fill="#00b67a"/>
      <path id="Path_3" data-name="Path 3" d="M109.219,339.261l-2.048-6.361L92.4,343.628Z" transform="translate(-33.141 -38.902)" fill="#005128"/>
    </g>
    <g id="stars-5-1" transform="translate(742 610.066)">
      <g id="Group_1" data-name="Group 1">
        <path id="Path_4" data-name="Path 4" d="M0,0H60.646V60.646H0ZM65.7,0h60.646V60.646H65.7Zm65.7,0h60.646V60.646H131.4Zm65.7,0h60.646V60.646H197.1Zm65.7,0h60.646V60.646H262.8Z" fill="#00b67a"/>
      </g>
      <path id="Path_5" data-name="Path 5" d="M35.626,46.839,44.849,44.5,48.7,56.378ZM56.852,31.488H40.617L35.626,16.2,30.635,31.488H14.4l13.14,9.476L22.549,56.251l13.14-9.476,8.086-5.812Zm44.473,15.351,9.223-2.337L114.4,56.378Zm21.226-15.351H106.316L101.325,16.2,96.335,31.488H80.1l13.14,9.476L88.249,56.251l13.14-9.476,8.086-5.812Zm44.473,15.351,9.223-2.337L180.1,56.378Zm21.226-15.351H172.015L167.025,16.2l-4.991,15.288H145.8l13.14,9.476-4.991,15.288,13.14-9.476,8.086-5.812Zm44.473,15.351,9.223-2.337L245.8,56.378ZM253.95,31.488H237.715L232.724,16.2l-4.991,15.288H211.5l13.14,9.476-4.991,15.288,13.14-9.476,8.086-5.812Zm44.473,15.351,9.223-2.337L311.5,56.378ZM319.65,31.488H303.414L298.424,16.2l-4.991,15.288H277.2l13.14,9.476-4.991,15.288,13.14-9.476,8.086-5.812Z" transform="translate(-5.303 -5.966)" fill="#fff"/>
    </g>
  </g>
</svg>
